<?xml version="1.0" encoding="UTF-8"?>
<svg version="1.1" xmlns="http://www.w3.org/2000/svg" width="512" height="512">
<path d="M0 0 C1.01790619 0.00215515 2.03581238 0.0043103 3.08456421 0.00653076 C17.69363523 0.05620146 32.02575853 0.30709809 46.375 3.3125 C47.34985352 3.51117676 48.32470703 3.70985352 49.32910156 3.91455078 C97.7109774 14.03517194 141.69928269 35.9516877 177.375 70.3125 C178.3640332 71.26068604 178.3640332 71.26068604 179.37304688 72.22802734 C188.86130305 81.37247479 197.6012044 90.66984009 205.375 101.3125 C206.23306152 102.46355017 207.09113451 103.61459177 207.94921875 104.765625 C213.98736829 112.95680614 219.34595521 121.47054105 224.375 130.3125 C224.73948242 130.94430176 225.10396484 131.57610352 225.47949219 132.22705078 C247.08534998 169.97532572 256.85198095 212.74189997 256.6875 255.9375 C256.68534485 256.95540619 256.6831897 257.97331238 256.68096924 259.02206421 C256.63129854 273.63113523 256.38040191 287.96325853 253.375 302.3125 C253.07698486 303.77478027 253.07698486 303.77478027 252.77294922 305.26660156 C242.65232806 353.6484774 220.7358123 397.63678269 186.375 433.3125 C185.74287598 433.97185547 185.11075195 434.63121094 184.45947266 435.31054688 C175.31502521 444.79880305 166.01765991 453.5387044 155.375 461.3125 C154.22394983 462.17056152 153.07290823 463.02863451 151.921875 463.88671875 C143.73224019 469.92427396 135.22961724 475.30707302 126.375 480.3125 C125.66778809 480.7146875 124.96057617 481.116875 124.23193359 481.53125 C101.09654164 494.5566741 75.92537591 503.30551461 49.9375 508.625 C49.21860596 508.77235596 48.49971191 508.91971191 47.7590332 509.0715332 C33.08339502 511.86090125 18.55831162 512.66142619 3.64770508 512.62817383 C0.70811513 512.6250221 -2.2304558 512.64854926 -5.16992188 512.67382812 C-18.54306192 512.71848737 -31.43916711 511.51301542 -44.625 509.3125 C-46.33055054 509.03031616 -46.33055054 509.03031616 -48.07055664 508.74243164 C-91.33802759 500.97044532 -132.38793216 480.98345309 -165.625 452.3125 C-166.37007813 451.67828125 -167.11515625 451.0440625 -167.8828125 450.390625 C-181.38779833 438.57948485 -194.05918743 425.82889772 -204.625 411.3125 C-205.48149066 410.16255169 -206.33826433 409.01281411 -207.1953125 407.86328125 C-213.23534209 399.67315742 -218.61867614 391.16870382 -223.625 382.3125 C-224.0271875 381.60528809 -224.429375 380.89807617 -224.84375 380.16943359 C-237.8691741 357.03404164 -246.61801461 331.86287591 -251.9375 305.875 C-252.08485596 305.15610596 -252.23221191 304.43721191 -252.3840332 303.6965332 C-255.35789088 288.05024391 -255.99800362 272.57681954 -255.9375 256.6875 C-255.93534485 255.66959381 -255.9331897 254.65168762 -255.93096924 253.60293579 C-255.88129854 238.99386477 -255.63040191 224.66174147 -252.625 210.3125 C-252.42632324 209.33764648 -252.22764648 208.36279297 -252.02294922 207.35839844 C-241.90232806 158.9765226 -219.9858123 114.98821731 -185.625 79.3125 C-184.99287598 78.65314453 -184.36075195 77.99378906 -183.70947266 77.31445312 C-174.56502521 67.82619695 -165.26765991 59.0862956 -154.625 51.3125 C-153.47394983 50.45443848 -152.32290823 49.59636549 -151.171875 48.73828125 C-142.98224019 42.70072604 -134.47961724 37.31792698 -125.625 32.3125 C-124.91778809 31.9103125 -124.21057617 31.508125 -123.48193359 31.09375 C-100.34654164 18.0683259 -75.17537591 9.31948539 -49.1875 4 C-48.46860596 3.85264404 -47.74971191 3.70528809 -47.0090332 3.5534668 C-31.36274391 0.57960912 -15.88931954 -0.06050362 0 0 Z M-173.625 105.3125 C-177.59813241 109.76146339 -181.19024503 114.43948984 -184.625 119.3125 C-185.10485352 119.99103027 -185.58470703 120.66956055 -186.07910156 121.36865234 C-222.54761643 173.45149286 -237.06992094 235.41614133 -226.12109375 298.20214844 C-215.70176121 353.32813562 -184.71093368 405.55322548 -139.328125 439.05371094 C-137.66465069 440.28319396 -136.01972448 441.53466212 -134.375 442.7890625 C-86.80711682 478.48443222 -25.36139909 492.23363526 33.1328125 484.28125 C71.36074814 478.58647596 107.58803299 463.68706349 138.375 440.3125 C139.25285156 439.64734375 140.13070313 438.9821875 141.03515625 438.296875 C147.81806351 433.00814224 154.14436318 427.23198911 160.375 421.3125 C160.91060547 420.80557617 161.44621094 420.29865234 161.99804688 419.77636719 C169.7538253 412.38486136 176.68928664 404.6451674 183.08398438 396.04785156 C183.92507113 394.91728336 184.77244514 393.79135704 185.62695312 392.67089844 C221.40477542 345.75148806 235.9902962 284.9874185 228.78100586 226.78051758 C220.77120104 167.99909993 190.24318686 111.39093189 142.64404297 75.10302734 C140.90257828 73.81712299 139.1444042 72.55966955 137.375 71.3125 C136.69646973 70.83264648 136.01793945 70.35279297 135.31884766 69.85839844 C54.1020887 12.99025237 -52.3869456 11.91716938 -173.625 105.3125 Z " fill="#000000" transform="translate(255.625,-0.3125)"/>
<path d="M0 0 C8.94455405 5.41807202 17.59012985 11.25662307 26.23168945 17.14282227 C31.00194356 20.39093552 35.78164098 23.62507207 40.56225586 26.85791016 C41.54895264 27.52522156 42.53564941 28.19253296 43.55224609 28.88006592 C53.80113828 35.80005274 64.13056973 42.59544833 74.46850586 49.38134766 C88.83158799 58.81822804 103.15882404 68.30624709 117.42041016 77.89599609 C119.30675078 79.16396731 121.194099 80.43044102 123.08251953 81.6953125 C125.69997051 83.44936411 128.31332118 85.20935601 130.92553711 86.97119141 C131.69017776 87.4824205 132.45481842 87.9936496 133.24263 88.52037048 C146.98741256 97.8292936 146.98741256 97.8292936 149.09741211 104.67041016 C150.02010037 110.16768969 149.33183143 115.04678083 146.96850586 120.06884766 C141.22606906 126.52908906 133.68511064 131.208275 126.47631836 135.88916016 C125.62999847 136.44364838 124.78367859 136.9981366 123.91171265 137.56942749 C122.09121821 138.76206842 120.2697065 139.95315776 118.44726562 141.14282227 C113.50275434 144.37162324 108.56721681 147.61406188 103.63256836 150.85791016 C102.61733093 151.52522156 101.60209351 152.19253296 100.55609131 152.88006592 C90.30332749 159.62999738 80.13167303 166.49757523 69.96850586 173.38134766 C54.77961568 183.66221519 39.52923097 193.84525721 24.21850586 203.94384766 C22.79308472 204.88550781 22.79308472 204.88550781 21.33886719 205.84619141 C18.64935447 207.62214745 15.95778064 209.39492861 13.26538086 211.16650391 C12.47568909 211.68805557 11.68599731 212.20960724 10.87237549 212.7469635 C-3.39369532 222.11017176 -3.39369532 222.11017176 -13.53149414 220.88134766 C-19.05699831 219.10901613 -22.16557652 215.43136658 -25.53149414 210.88134766 C-27.07371896 207.79689803 -26.67948584 204.54965095 -26.67866516 201.16436768 C-26.68234185 200.35834885 -26.68601854 199.55233003 -26.68980664 198.7218864 C-26.70086921 196.00582808 -26.70469167 193.28980798 -26.70849609 190.57373047 C-26.7147588 188.63245522 -26.72140543 186.69118117 -26.72840881 184.74990845 C-26.74583647 179.46467278 -26.75637539 174.17944617 -26.76461434 168.89418888 C-26.76976076 165.5938533 -26.77583666 162.29352054 -26.78212547 158.99318695 C-26.80118249 148.67220136 -26.81541253 138.35122294 -26.82373744 128.03022313 C-26.8335127 116.10715252 -26.85983769 104.18426741 -26.90023834 92.26126218 C-26.93037562 83.05186085 -26.94520405 73.84251277 -26.94851846 64.63306308 C-26.95087167 59.12975516 -26.95986744 53.62664532 -26.98497963 48.1233902 C-27.00822352 42.94579427 -27.01250837 37.76852733 -27.00221825 32.59089279 C-27.00172188 30.6905826 -27.00807197 28.79025643 -27.02177429 26.88999557 C-27.03943889 24.29502205 -27.03241419 21.70123613 -27.01924133 19.10626221 C-27.03021058 18.35469573 -27.04117983 17.60312926 -27.05248147 16.82878804 C-26.98006833 10.91798241 -24.99041498 7.41241287 -20.93383789 3.23681641 C-14.79314568 -1.65936218 -7.44323961 -3.28912373 0 0 Z M-0.53149414 32.88134766 C-0.53149414 83.70134766 -0.53149414 134.52134766 -0.53149414 186.88134766 C2.97274888 185.47965045 5.30668192 184.48553757 8.28515625 182.45239258 C9.00532928 181.96444214 9.72550232 181.4764917 10.46749878 180.97375488 C11.24255768 180.44181519 12.01761658 179.90987549 12.81616211 179.36181641 C13.64407257 178.79966431 14.47198303 178.23751221 15.32498169 177.6583252 C17.12089741 176.43862723 18.91546359 175.21694035 20.70883179 173.99349976 C25.54562195 170.69492989 30.39359523 167.41289659 35.24194336 164.13134766 C36.24635971 163.45126144 37.25077606 162.77117523 38.28562927 162.07048035 C49.01766087 154.81492829 59.83092031 147.68450008 70.65600586 140.56884766 C72.50999561 139.34873495 74.36391897 138.12852136 76.21777344 136.90820312 C83.37090224 132.20085417 90.52634242 127.49710749 97.69038391 122.80638123 C99.47913872 121.63371087 101.26593724 120.4581387 103.05175781 119.28100586 C105.0895369 117.9379349 107.13078012 116.60009755 109.17626953 115.26879883 C110.03067627 114.70394775 110.88508301 114.13909668 111.76538086 113.55712891 C112.49080078 113.08186768 113.2162207 112.60660645 113.96362305 112.11694336 C114.46023438 111.70919678 114.9568457 111.3014502 115.46850586 110.88134766 C115.46850586 110.22134766 115.46850586 109.56134766 115.46850586 108.88134766 C114.03626629 107.64718704 114.03626629 107.64718704 112.11181641 106.45239258 C111.36804749 105.96443207 110.62427856 105.47647156 109.85797119 104.97372437 C109.03206482 104.44179474 108.20615845 103.90986511 107.35522461 103.36181641 C106.49539978 102.79975494 105.63557495 102.23769348 104.74969482 101.65859985 C102.87554505 100.43417286 100.99940233 99.21279234 99.12155151 97.99404907 C94.076405 94.71879239 89.04647389 91.42032231 84.01538086 88.12353516 C82.97582748 87.44303604 81.93627411 86.76253693 80.86521912 86.06141663 C70.14678645 79.03535487 59.52022923 71.87598126 48.90600586 64.69384766 C47.11019554 63.4801756 45.31429797 62.26663262 43.51831055 61.05322266 C40.09515955 58.74018871 36.67233117 56.42667864 33.24975586 54.11279297 C26.89299344 49.81599768 20.53553951 45.52035239 14.16238403 41.24789429 C13.00504503 40.47097923 11.84882614 39.69239259 10.69381714 38.91201782 C9.15153011 37.87019112 7.60507506 36.83454224 6.05834961 35.79931641 C5.21135498 35.22979248 4.36436035 34.66026855 3.49169922 34.07348633 C1.57270324 32.71212745 1.57270324 32.71212745 -0.53149414 32.88134766 Z " fill="#000000" transform="translate(205.531494140625,146.11865234375)"/>
</svg>
